<?xml version="1.0" encoding="UTF-8"?>
<svg id="Calque_1" xmlns="http://www.w3.org/2000/svg" version="1.1" viewBox="0 0 24 24">
  <!-- Generator: Adobe Illustrator 29.8.3, SVG Export Plug-In . SVG Version: 2.1.1 Build 3)  -->
  <defs>
    <style>
      .st0 {
        fill: #fff;
      }
    </style>
  </defs>
  <g id="Layer_2">
    <path class="st0" d="M12,22c-5.5,0-10-4.5-10-10S5.4,3.1,10,2.2c.4,0,.9,0,1.1.5.2.4.1.9-.2,1.2-1.2,1.2-1.9,2.9-1.9,4.6,0,3.6,2.9,6.5,6.5,6.5s3.4-.7,4.6-1.9c.3-.3.8-.4,1.2-.2.4.2.6.6.5,1.1-.9,4.6-5.1,8-9.8,8ZM7.6,5.3c-2.2,1.5-3.6,3.9-3.6,6.7,0,4.4,3.6,8,8,8s5.2-1.4,6.7-3.6c-1,.4-2.1.6-3.2.6-4.7,0-8.5-3.8-8.5-8.5s.2-2.2.6-3.2Z"/>
  </g>
</svg>