<?xml version="1.0" encoding="UTF-8"?>
<svg id="Calque_1" xmlns="http://www.w3.org/2000/svg" version="1.1" viewBox="0 0 24 24">
  <!-- Generator: Adobe Illustrator 29.8.3, SVG Export Plug-In . SVG Version: 2.1.1 Build 3)  -->
  <defs>
    <style>
      .st0 {
        fill: #fff;
      }
    </style>
  </defs>
  <g id="_icons">
    <path class="st0" d="M7,12c0,2.8,2.2,5,5,5s5-2.2,5-5-2.2-5-5-5-5,2.2-5,5ZM12,9c1.7,0,3,1.3,3,3s-1.3,3-3,3-3-1.3-3-3,1.3-3,3-3Z"/>
    <path class="st0" d="M13,5v-2c0-.6-.4-1-1-1s-1,.4-1,1v2c0,.6.4,1,1,1s1-.4,1-1Z"/>
    <path class="st0" d="M19.1,4.9c-.4-.4-1-.4-1.4,0l-1.4,1.4c-.4.4-.4,1,0,1.4.2.2.5.3.7.3s.5,0,.7-.3l1.4-1.4c.4-.3.4-1,0-1.4Z"/>
    <path class="st0" d="M21,11h-2c-.6,0-1,.4-1,1s.4,1,1,1h2c.6,0,1-.4,1-1s-.4-1-1-1Z"/>
    <path class="st0" d="M17.7,16.2c-.4-.4-1-.4-1.4,0s-.4,1,0,1.4l1.4,1.4c.2.2.5.3.7.3s.5-.1.7-.3c.4-.4.4-1,0-1.4l-1.4-1.4Z"/>
    <path class="st0" d="M11,19v2c0,.6.4,1,1,1s1-.4,1-1v-2c0-.6-.4-1-1-1s-1,.4-1,1Z"/>
    <path class="st0" d="M4.9,19.1c.2.2.5.3.7.3s.5-.1.7-.3l1.4-1.4c.4-.4.4-1,0-1.4s-1-.4-1.4,0l-1.4,1.4c-.4.3-.4,1,0,1.4Z"/>
    <path class="st0" d="M2,12c0,.6.4,1,1,1h2c.6,0,1-.4,1-1s-.4-1-1-1h-2c-.6,0-1,.4-1,1Z"/>
    <path class="st0" d="M6.3,4.9c-.4-.4-1-.4-1.4,0s-.4,1,0,1.4l1.4,1.4c.2.3.5.4.8.4s.5-.1.7-.3c.4-.4.4-1,0-1.4l-1.5-1.5Z"/>
  </g>
</svg>