<?xml version="1.0" encoding="UTF-8"?>
<svg id="Calque_1" data-name="Calque 1" xmlns="http://www.w3.org/2000/svg" viewBox="0 0 350.61 321.09">
  <defs>
    <style>
      .cls-1 {
        fill: #ec651d;
      }

      .cls-2 {
        fill: #fff;
      }

      .cls-3 {
        fill: #e30613;
      }

      .cls-4 {
        fill: #f9b233;
      }

      .cls-5 {
        fill: #f18748;
      }
    </style>
  </defs>
  <g id="Calque_2" data-name="Calque 2">
    <g>
      <path class="cls-2" d="M135.39,133.73c-.54.25-1.53.54-2.27.86-.88.38-3.55,1.32-4.27,1.88-3.92,3.07-7.75,6.83-11.62,10.12-3.27,2.78-6.15,5.38-8.99,8.14"/>
      <path class="cls-2" d="M130.05,132.49c-.72.98-45.68,43.05-46.11,43.56,0,0-1.74.88-.64,3.2,1.68,1.27,2.9-.26,3.96-.58.48-.15,3.21-.32,3.68-.09.97.45,3.1,2.36,3.16,3.4.04.71-.48,1.11-.53,1.64-.11,1.24-.28,2.73-.31,3.63-.02.63-.21,2.21-.63,2.84-.11.22-.99.7-1.2.77-1.23.4-1.94-.56-3.8.69-2.74,1.84-1.02,3.38,1,4.89.57.43,2.1,1.42,2.77,1.83,1.34.83,6.12,3.51,7.47,3.03.29-.1.89-.69,1.12-.96,2.87-3.34,3.91-10.13,6.19-14.1,2.75-4.77,11.29-12.36,15.86-15.34,1.94-1.26,4.17-2.1,6.16-3.27.43-.59.64-3.25.8-4.24"/>
      <path d="M72.74,161.95,132.41,126.87c-3.13.9-5.73,2.85-8.37,4.74-6.19,4.44-11.99,8.69-15.33,12.97-2.58,3.31-9.08,9.7-13.06,14.18-3.02,3.4-7.69,10.65-11.4,12.72-1.26.71-2.81.43-3.84,1.5l-13.38,8.16c-.22.14-.41.34-.52.57-2.18,4.55-.55,7.7,1.13,12.01,1.16,2.98,2.28,4.4,3.52,7.03,1.4,2.99,1.91,4.54,4.41,7.18,1.16,1.23,2.97,2.09,4.58,2.55-.06.28,9.33.17,10.86.41.22.03.44,0,.65-.07l1.63-.62c4.28-1.62,8.07-4.31,11.01-7.81l1.16-1.38c.08-.09.14-.19.19-.3,1.02-2.34,3.09-5.28,4.06-7.59.36-.85.21-1.92.8-3.15,1.05-2.21,4.26-4.69,5.72-6.7.43-.6.2-1.27.58-1.7,1.23-1.39,6.5-5.48,8.22-6.78.38-.29,2.98-1.93,3.16-1.91l5.05-4.01M86.52,202.1l-4.74,4.19c-.37.32-.89.45-1.34.26-1.24-.54-2.68-2.27-1.8-3.19,1.18-1.22,4.03-2.09,5.48-3.57.43-.44,1.12-.48,1.64-.16l.55.33c.77.46.87,1.54.2,2.14ZM91.85,203.94h0c.63.52.65,1.49.04,2.03-3.8,3.34-6.17,2.19-1.82-1.96.49-.47,1.26-.51,1.78-.08ZM75.27,200.12c-1.02-.56-1.6-2.36-.85-3.35.31-.4,3.47-2.14,5.48-3.04.8-.36,1.73.16,1.85,1.03l.23,1.57c.08.57-.25,1.1-.78,1.34-1.94.89-4.29,3.36-5.94,2.46ZM72.33,193.22c-.29-.13-1.38-1.31-1.44-1.59-.49-2.26,3.44-2.27,4.6-2.95.88-.52,1.23-1.44,2.21-1.96.87-.46,3.18-1.07,4.92-.91,1.25.12,1.67,1.73.63,2.44-.38.26-.74.47-.88.55-.93.47-3.21,1.08-4.3,1.75-1.2.74-3.87,3.55-5.74,2.68ZM129.01,163.38c-.13.79-.28,2.63-.56,3.65-.09.35-.32.64-.64.82-1.88,1.06-3.96,1.87-5.76,3.04-4.58,2.97-13.12,10.57-15.86,15.34-2.28,3.97-3.32,10.76-6.19,14.1-.23.27-.83.86-1.12.96-1.35.48-6.12-2.2-7.47-3.03-.67-.41-2.2-1.41-2.77-1.83-2.02-1.51-3.73-3.05-1-4.89,1.86-1.25,2.57-.3,3.8-.69.1-.03.49-.13.94-.37.83-.45,1.32-1.34,1.38-2.28l.49-5.23c.05-.9-.17-1.86-.55-2.63-.54-1.11-1.9-2.09-2.52-2.34-.66-.27-2.92-.16-3.4,0-1.06.32-2.89,3.2-4.57.63-1.49-2.62,7.28-4.6,9.34-7.04.42-.5,1.19-1.98,1.9-2.96.04-.06.09-.12.15-.17l13.66-13.71c2.83-2.77,5.72-5.36,8.99-8.14,3.87-3.29,7.7-7.04,11.62-10.12M73.08,182.45c1.34-.18,2.02,1.62.92,2.4-2.04,1.45-5.33,1.98-4.04-.73.41-.86,1.78-1.5,3.12-1.68ZM133.21,163.69"/>
      <path class="cls-2" d="M72.33,193.23c1.88.87,4.54-1.94,5.74-2.68,1.09-.67,3.37-1.27,4.3-1.75.41-.21,2.4-1.48,2.27-1.87-.78-1.99-5.59-.92-6.94-.21-.99.52-1.33,1.44-2.21,1.96-1.16.68-5.09.69-4.6,2.95.06.29,1.15,1.46,1.44,1.59Z"/>
      <path class="cls-2" d="M75.26,200.14c1.93,1.05,4.81-2.48,6.87-2.75l-.61-4.2c-.45-.26-6.68,3.01-7.11,3.59-.76,1-.18,2.79.85,3.35Z"/>
      <path class="cls-2" d="M87.88,200.92l-3.15-1.9c-1.06,1.99-4.7,2.94-6.08,4.36-1.12,1.16,1.48,3.62,2.69,3.32l6.54-5.79Z"/>
      <path class="cls-2" d="M79.49,180.95c-2.28-1.6-8.01-.23-9.16,2.18-3,6.31,8.96,2.04,9.16-2.18Z"/>
      <path class="cls-2" d="M90.95,203.22c-6.02,5.22-2.61,6.56,2.05,1.68l-2.05-1.68Z"/>
    </g>
  </g>
  <g>
    <path class="cls-2" d="M287.19,94.8c.34-1.17,7.13-10.06,7.36-10.69,0,0,1.33-1.42-.49-3.23-2.02-.62-2.64,1.23-3.52,1.9-.4.3-2.91,1.39-3.43,1.35-1.06-.09-3.72-1.16-4.13-2.11-.28-.65.08-1.21-.06-1.73-.32-1.2-.67-2.66-.95-3.51-.2-.6-.56-2.15-.37-2.88.03-.24.69-1,.87-1.13,1.02-.8,2.01-.14,3.33-1.95,1.94-2.67-.19-3.53-2.61-4.26-.68-.21-2.46-.62-3.23-.78-1.55-.32-6.95-1.21-8.05-.29-.24.2-.6.95-.72,1.29-1.56,4.12-.21,10.86-1,15.37-.95,5.43-6.38,15.48-9.67,19.84-1.39,1.85-3.21,3.4-4.67,5.18-.2.7.51,3.27.7,4.25,2.01,10.48.35,26.07-10.48,31.83-.93.5-3.53,1.09-3.72,1.77-.29,1,3.18,4.76,3.83,5.9.4.1,3.5-1.31,4.11-1.64,3.62-1.96,7.45-4.92,10.4-7.81.43-.42,1.25-1.03,1.84-1.58.7-.66,2.88-2.45,3.37-3.23,2.64-4.23,4.95-9.06,7.46-13.48,2.12-3.73,3.95-7.16,5.66-10.72"/>
    <path class="cls-2" d="M208.79,244.44c.68-.08,7.11-2.24,7.98-2.63,1.2-.54,2.46-1.79,3.6-2.23,2.47-.94,2.87-.86,5.3-2.35,4.26-2.62,8.28-6.17,12.26-8.86,4.45-3.01,4.87-3.31,7.47-8.2,5.48-10.28,7.97-17.69,7.8-29.7-.02-1.58.54-3.99.31-5.36-.78-4.79-3.06-12.1-4.76-16.74-3.05-8.32-6.33-13.02-12.46-19.6-.53-.57-1.3-.86-1.84-1.44-.53,1.54-.72,3.3-.91,4.92-.24,2.08.87,4.36-2.02,4.91-3.22-.99-1.4-5.05-4.9-5.46-.94,1.52-.33,2.85-.45,4.1-.04.43-.92,3.78-1.11,4.36-.48,1.49-1.71,3.07-3.39,3.18-1.32.09-2.84-1.54-3.74-1.01-.73,1.52-2.21,2.52-3.33,3.77-.64.72-1.59,2.67-1.94,2.98s-1.92.78-2.58,1.26c-3.31,2.44-3.25,3.59-7.65,5.81-10.04,5.05-20.11,6.56-31.3,6.01-2.98-.15-5.98-1.09-8.99-.41l-3.49,7.44c-4.73,7.26-10.13,15.37-19.09,17.52-1.07,1.3,2.86.44,3.09.43.64-.03,1.17.38,2.09.23.43-.07,7.22-.66,7.58-.9.61-.41,2.03-.28,2.71-.69.13-.08,1.42-.52,1.56-.51.64.04.91.35.87.92-.03.51-1.83.77-2.49,1.19-3.66,2.3-13.47,5.55-17.78,5.53-1.13,0-6.59-1.25-7.12-.74-.01,2.45,2.63,3.8,3.81,5.48.5.72.63,1.65,1.2,2.44,1.78,2.47,3.65,4.83,5.55,7.21,1.95.98,4.76-3.98,8.14-1.59,2.51,1.77.89,2.91.08,4.71-.25.57-.15,1.25-.41,1.78-.51,1.03-3.19,3.82-3.38,5.01-.09.6.59,3.14,1.03,3.56,3.25,3.16,11.97-2.62,15.64-3.29,2.24-.41,2.93-.45,5.12-1.08,2.72-.79,9.81-4.04,9.39.84-.94.19-1.15,1.38-1.75,1.71-.88.48-2.62.27-3.62.75-.67.32-1.47,1.6-2.23,2.14-1.06.75-4.72,1.63-3.79,3.12.73,1.18,1.92.91,2.74,1.25.62.26,1.39.55,1.86.65.45.1.73-.06,1.22-.08,1.26-.05.84.28,2.95-.02.98-.14,4.47-.14,5.82-.18,7.33-.24,14.51-.3,21.81-.91l7.49-1.21Z"/>
    <path class="cls-3" d="M70.08,171.61l.31.39,11.35,1.15,22.36-7.97,16.97,1.86,43.01,11.74,25.06-1.23,24.93-13.23,1.09-6.87v-10.25l-8.2-1.51-22.3,5.3-23.03-3.32-16.23-9.29-12.68-8.13-40.43,3.46-.19.38c6.73,4.89.25,6.39.25,6.39l-.94.13-27.61-1.62c28.91,6.02,20.05,15.35,18.92,15.53l-37.09-9.2-2.91,2.33c28.42,5.3,36.02,12.4,38.84,14.82l1.75.4.65,1.54c-.05.09-43.63-3.38-42.89-3.26,38.59,6.43,30.41,9.46,29.04,10.45Z"/>
    <path d="M207.11,64.28s0,0,0,0c-3.89.4-6.69,6.51-6.18,9.94.34,2.29,1.51,6.51,2.76,8.46.55.86,2.1,2.16,2.9,2.93h0c-1.45,3.37-4.58,5.51-4.68,9.49-.14,5.67,4.35,13.54,6.89,18.82,1.5,3.13,3.31,6.63,5,10,1.25,2.5,2.32,5.13,3.37,7.73,0,0,0,0,0,.01-1.71.33-3.1-.68-4.64-.99-5.96-1.18-12.22-1.75-18.12-2.45h0c-2.91-1.29-7.62-.94-10.35-2.22-.56-.26-1.96-2.13-2.36-2.74-3.08-4.7-5.11-10.16-7.71-15.04-7.19-13.45-20.69-33.22-9.55-48.07,2.18-2.91,9.2-6.53,12.81-6.91.96-.1,2.02-.24,2.65-.32,1.1-.13,2.36-.22,3.6-.22,6.55.02,17.64,4.46,22.27,9.15h0s1.36,2.41,1.36,2.41ZM282.36,62.1l4.16-7.66h0c1.03-.69,4.32.73,3.66,2.2-.81,1.8-3.9,3.94-4.22,6.17,0,0,0,0,0,0l-3.59-.7s0,0,0-.01ZM278.67,60.99,294.47,58.53c1.15.18,2.31,1.67,1.94,2.86-.21.69-4.93,5.86-5.46,5.8h0s-2-3.73-2-3.73c0,0,0,0,0,0,1.85-.96,3.35-5.26,5.51-4.93ZM299.59,64.01c.32.03,1.74.76,1.9,1.01,1.23,1.96-2.46,3.31-3.32,4.35-.65.79-.66,1.77-1.41,2.59-1.03,1.13-5.18,3.78-6.59,2.17,0,0,0,0,0,0-.25-.33,1.19-2.2,1.5-2.53.71-.76,2.65-2.11,3.44-3.11.88-1.1,2.42-4.65,4.48-4.48ZM278.99,112.47c-1.72,3.57-3.54,6.99-5.66,10.72-2.51,4.42-4.83,9.25-7.46,13.48-.67,1.08-2.67,2.56-3.37,3.21-.58.55-1.41,1.18-1.84,1.6-2.95,2.88-6.78,5.84-10.4,7.81-.6.33-3.69,1.73-4.1,1.64h0c-.65-1.15-4.11-4.9-3.83-5.9.19-.68,2.79-1.27,3.72-1.77,10.83-5.76,12.49-21.35,10.48-31.83-.19-.99-.9-3.55-.7-4.25h0c1.47-1.78,3.28-3.34,4.67-5.18,3.28-4.36,8.72-14.41,9.67-19.84.79-4.51-.55-11.25,1-15.37.13-.33.48-1.09.72-1.29,1.11-.91,6.51-.03,8.05.29.77.16,2.55.57,3.23.78,2.41.73,4.55,1.59,2.61,4.26-1.32,1.81-2.31,1.16-3.33,1.95-.09.07-.42.29-.76.67-.63.7-.79,1.71-.51,2.62l1.33,5.08c.26.87.8,1.69,1.41,2.29.88.86,2.5,1.31,3.17,1.34.71.03,2.8-.85,3.2-1.15.89-.67,1.63-3.99,4.08-2.16,2.3,1.95-5.27,6.81-6.37,9.81-.23.63-.46,2.37-.8,3.54h0s-8.2,17.65-8.2,17.65ZM300.2,74.86h0c-.74-2.43,5.13-7.29,4.73-3.11-.15,1.6-3.1,3.55-4.73,3.11ZM267.77,59.71l-2.03,8.46h0c-.13,2.57-1.11,6.13-1.24,8.69-.05.93.46,1.87.33,3.23-.23,2.44-2.4,5.86-3.09,8.25-.2.71.25,1.26.03,1.8-.68,1.73-4.23,7.37-5.41,9.18-.26.4-2.14,2.83-2.32,2.87-1.29.3-3.81-1.26-6.33-.52-1.09.32-2.82,1.97-3.44,1.97-.13,0-2.22-1.06-2.3-1.16-.21-.26.09-.99-.11-1.33-.09-.16-3-1.61-3.24-1.69-1.44-.5-5.48-.75-7.08-.56-3.3.38-8.16,3.71-9.32,6.89,0,0,0,0,0,0-3.32-.63-6.56-.69-9.9-.34h0c-1.5-2.02-2.64-4.69-3.14-7.15-.58-2.89.11-3.91.92-6.68.26-.9.98-1.77,1.29-2.3.48-.83,1.47-2.51,2.31-3.19,1.75-1.42,4.14-1.24,4.8-1.32,5.28-.69,11.04.17,16.29-.9,2.31-.47,5.51-1.47,5.98-4.08h0c-1.67-4.08-6.32-3.18-9.75-4.79,0,0,0-.01,0-.01,2.99-2.03,9.47-2.24,9.5-6.91.02-3.99-6.07-4.47-8.97-4.2-5.64.52-8.08,2.76-14.57,1.71-.52-.08-2.33-.61-2.94-1.23-1.66-1.66-2.31-3.63-3.54-5.08-12.29-14.38-42.51-17.03-53.01.45-8.65,14.41-2.79,30.6,5.48,43.63h0c2,1.94,3.09,4.94,4.3,7.5,0,0,0,.01,0,0-2.9-.11-5.91-.3-8.74.54-.89.26-1.72,1.21-2.6,1.41-3.75.83-8.26-1.91-12.13-1.94-.88,0-5.27.85-6.1,1.18-1.08.43-4.6,3.97-4.99,4.93-.27.67-.5,4.65-.4,5.37.11.8.62,1.22.72,1.83s.58,4.28.39,4.52c0,0,0,0,0,0-4.08-1.05-8.27-1.89-12.53-1.42-5.17.57-11.93,3.78-16.84,3.95-3.02.1-8.5-2-11.04.58-1.64,1.66-1.08,3.05,1.07,3.66,7.7,2.16,15.86.4,23.25-1.92,1.02-.32,4.84-1.2,5.71-1.23,1.19-.04,9.66,1.81,11.22,2.3,2.66.83,5.08,2.53,7.66,3.64,2.59,1.12,2.77,1.32,4.73,3.46.53.57,2.59,1.21,2.8,1.75l-.73.36c.52,1.48,5.92,4.85,7.51,5.61,8.52,4.07,21.22,5.14,30.59,3.75,5.86-.87,11.6-2.33,17.28-3.87.92-.25,1.62-.85,2.53-.93-1.2,1.79-3.56,2.78-5.46,3.83-4.23,2.33-8.69,3.86-12.84,5.73-3.8,1.71-8.23,2.56-12.38,3.68-2.19.59-4.52.63-6.73,1.98-3.45,2.1-1.55,5.6,2.23,5.17,6.89-.79,16.6-4.5,23.17-7.09,1.68-.66,8.87-2.84,9.39-4.1.13-.32-.03-.98.12-1.14.08-.09,1.19-.1,1.68-.32,2.83-1.25,5.23-2.82,7.57-4.82.22-.07.47,1.06.51,1.31.08.64.35,4.29.3,4.65-.34,2.12-8.6,9.24-10.65,10.79-1.68,1.26-7.47,5.23-9.19,5.74-5.27,1.56-16.44,3.53-21.77,3.19-5.74-.37-12.14-.96-17.75-1.71-17.36-2.3-30.67-15.14-49.24-13.77-9.77.72-17.11,8.06-26.72,8.89-2.24.19-7.12-.64-8.74,1.17-2.39,2.68,1.49,3.97,3.75,4.15,14.11,1.08,24.92-8.08,37.53-8.06.93,0,5.12.52,5.64.95,1.24,1.04,37.98,12.81,37.61,13.34-.05.07-.13.19-.25.34-6.61,8.89-16.12,15.18-26.86,17.88l-11.97,3.01s0,0,0,0l1.41,7.1h0s21.03,24.23,21.03,24.23h0c-.05,1.44-.47,3.34-.44,4.7.02,1.07,1.13,2.33.27,3.35-3.98,2.7-7.97,5.37-11.92,8.11-2.49,1.73-4.49,3.92-6.69,5.32-1.83,1.17-9.23,1.87-9.41,4.81-.03.5.7.81.52,1.22-.27.6-2.33,1.12-3.09,1.66-1.6,1.13-3.74,3.6-5.11,5.1-1.66,1.82-4.11,3.06-1.57,5.98h0c3.47.8,6.45-1.12,9.92-1.45,0,0,0,0,0,0,.37,2.04-.4,4.21,1.22,5.69.8.73,3.12,1.08,3.86.32.38-.4.41-1.08.74-1.46,4.75-5.5,9.63-12.9,15.1-17.31.72-.58,2.21-.99,3.28-1.82,2.12-1.64,2.94-3.17,5.25-4.58,1.39-.85,6.37-3.69,7.68-4,.9-.22,1.91.28,3.05.18,1.48-.12,2.25-1.03,3.15-1.25,3.66-.9,5.62-.12,8.81,1.66.42.23.49.81.88,1.02,8.62,4.83,20.91,4.59,30.55,3.7,11.54-1.08,21.62-4.78,32.23-8.92,3.43-1.34,6.65-3.01,9.65-5.15h0c1.06.59,2.44,1.27,3.66,1.34,2.28.15,5.06-1.36,6.19-1.35.27,0,4.08,1.91,4.91,2.24,8.07,3.25,11.54,7.08,17.36,13.42,2.13,2.32.77,2.34-.05,4.61-.52,1.44-1.15,3.19-1.55,4.65-.46,1.68-1.54,6.45-1.52,7.95.03,1.81.34,3.99,2.27,4.61s4.66-.71,5.87-2.3c.29-.39.64-.99,1-1.63.93-1.7,2.61-2.86,4.52-3.14l1.13-.17c2.04-.3,4.11-.12,6.07.52,2.43.8,4.96,1.57,6.89.08,1.5-1.15,1.17-2.78,1.82-4.11.43-.88,2.39-4.11,3-4.65,1.51-1.34,3.92-1.4,5.55-2.1,1.24-.53,5.57-3.5,6.5-4.43,1.5-1.49.39-3.97-1.3-4.58-.38-.14-3.61-.45-4.19-.47-4.61-.15-11.25.37-15.99.65-2.41.14-5.84,1.56-8.22.54-1.4-.6-3.86-4.45-4.96-5.6-2.75-2.91-5.37-5.12-8.5-7.53-2.71-2.09-5.68-4.83-8.43-6.87-.89-.66-4.07-2.01-4.53-2.75h0s-.49-4.84-.49-4.84h0c.66-1.07,1.8-1.53,2.68-2.43.45-.47,1.23-2.05,1.34-2.12h0s2.31-9.04,2.31-9.04c.19-.02.19-14.49.28-14.6h0s-1.29-20.82-1.29-20.82c.11-3.5-7.82-17.41-5.27-20.29h0s11.27-8.19,11.27-8.19c2.68-1.95,5-4.34,6.87-7.07,4.65-6.79,9.13-13.27,10.93-18.82,1.3-3.99,5.22-12.22,7.43-17.79,1.67-4.23,3.59-12.63,6.37-15.85.94-1.09,2.14-1.58,3.09-2.72l3.39-3.19,3.31-3.31h0s1.32-1.64,1.32-1.64c.92-1.14,1.61-2.45,1.93-3.88.04-.19.08-.37.1-.53.68-5.3,1.38-5.26-3.23-8.14-2.71-1.69-1.94-3.99-3.99-6.04-2.34-2.33-4.5-2.92-7.76-4.55-1.52-.76-1.26-5.08-8.73-3.42h0s-1.33-.88-1.33-.88c0,0-2.43-4.77-8.06-.77h0s-3.78,3.25-3.78,3.25M226.53,108.27c.51-.51.94-2.35,1.76-3.15,1.71-1.68,2.41-.7,3.95-.77.75-.04,1.4-.62,2.2-.65,1.67-.06,4.75,1.24,5.68,2.65.27.42,1.86,3.99,2.01,4.55,2,7.49-2.33,12.44-6.76,17.68-1.19,1.4-2.26,4.19-4.52,3.81-.78-.13-1.35-.68-2.22-.74-1.11-.07-4.22,1.16-3.82-.86.16-.83,2.2-2.79,2.79-3.79.81-1.36,4.33-7,4.59-7.83,1.13-3.67,2.29-6.1,2.83-10.24.07-.55.65-.94.71-1.49.32-2.89-2.67-2.85-4.55-1.62-2.49,1.62-4.38,6.34-6.53,7.31-2.51,1.14-4.59,1.44-6.75-.57,0,0,0,0,0-.01.89-1.32,2.89-.73,3.88-1.17.26-.12,4.55-2.9,4.76-3.11ZM248.12,107.64c1.18-1.26,4.19,4.06,4.35,4.93.4,2.17.69,9.82.29,11.92-.21,1.12-.91,3.86-1.25,4.95-.83,2.71-7.77,10-10.42,11.07-1.11.45-2.7.34-3.91,1-.02-1.31,1.55-1.52,2.37-2.18,3.54-2.87,8.26-9.23,9.76-13.55.51-1.47,2.1-6.79.63-7.77h0s-1.4-.1-1.4-.1h0s-8.07,14.95-8.07,14.95h0c-1.02,1.32-3.28,1.88-4.35,2.67s-1.65,3.19-3.67,2.7c-.42-.37,2.67-3.27,3.08-3.65,1.42-1.3,5.04-3.78,5.92-5.19.25-.39.12-1.19.52-1.85,2.51-4.19,5.88-9.39,6.3-14.39.07-.9-.45-5.2-.16-5.52ZM140.06,123.2c-.15-.33-.86-3.36-.78-3.64.37-1.36,2.84-2.07,4.12-2.09,9.13-.14,15.27,4.94,23.25,8.09,10.53,4.16,22.03,6.77,33.22,8.66.88.15,1.93-.12,2.87.04,3.91.64,7.75,1.87,11.65,2.47h0c.57.41.26,3.41-.52,3.86-.5.29-1.27.14-1.83.36-1.99.78-1.84.56-3.79.94-6.11,1.18-12.11,3.44-18.32,4.62-5.78,1.1-19.24,1.99-24.47-.47-1.54-.72-3.54-2.6-4.99-3.39-2.51-1.36-4.62-2.17-7.23-3.7-3.57-2.09-7.05-4.36-10.58-6.54-1.25-.9-.02-1.92.02-2.73.14-2.41-.97-3.94-1.9-5.94-.15-.33-.69-.42-.74-.54ZM224.45,135.32l2.07.64c.43.17.73.49,1.04.8.6.6,3.21,5.4,3.38,6.12.07.28-.24,5.15-.32,5.71-.1.66-.36,1.22-.89,1.66-.86-1.07-2.21-2.11-2-3.62,0,0,0,0,.01,0,.64.47,1.14.9,1.81.14-.32-1.71-1.12-3.24-1.66-4.86-.23-.69-.09-1.51-.33-2.22-.52-1.55-3.06-2.48-3.11-4.35ZM221.9,135.32c1.04-.2.59.28.82.79,1.13,2.47,1.53,3.72.99,6.49-.63-.11-.64-.73-.78-1.22-.51-1.82-.8-4.16-1.04-6.06ZM221.15,158.61h0c-.76.11-1.71-.3-2.18-.88-.16-.2-1.78-4.37-1.83-4.73-.35-2.39-.04-6.08.27-8.52.14-1.13,1.44-8.73,2.12-8.79h0c3,1.11.78,4.81.27,7.19-.17.78-.02,1.59-.18,2.37-.49,2.35-2.39,5.26-.77,7.57h0c3.11.72,1.75-3.91,4.13-4.39.34.39-1.6,6.13-1.74,7.18-.12.85.61,1.96-.09,3ZM201.3,245.65h0c-7.31.61-14.48.68-21.81.91-1.35.04-4.84.05-5.82.18-2.1.29-1.68-.03-2.95.02-.49.02-.77.17-1.22.06-.47-.11-1.24-.38-1.86-.64-.82-.34-2-.07-2.74-1.25-.93-1.5,2.73-2.37,3.79-3.12.76-.54,1.56-1.82,2.23-2.14,1-.48,2.74-.28,3.62-.75.6-.33.81-1.52,1.75-1.71.41-4.88-6.67-1.62-9.39-.84-2.19.63-2.88.67-5.12,1.08-3.67.67-12.39,6.45-15.64,3.29-.44-.43-1.13-2.96-1.03-3.56.19-1.19,2.87-3.98,3.38-5.01.26-.53.16-1.21.41-1.78.8-1.8,2.42-2.94-.08-4.71-3.38-2.39-6.19,2.57-8.14,1.59h0c-1.9-2.38-3.76-4.74-5.55-7.21-.57-.79-.7-1.72-1.2-2.44-1.17-1.68-3.82-3.02-3.81-5.47h0c.54-.51,5.98.73,7.11.73,4.31.02,24.36-4,28.02-6.29.66-.41,9.76-6,9.79-6.52.03-.57-1.06-.69-1.7-.74-.15,0-7.78,2.64-7.9,2.71-.68.41-1.91.71-2.52,1.12-.36.24-17.73,4.11-18.16,4.17-.92.15-1.45-.25-2.09-.23-.23,0-4.16.86-3.09-.43,8.96-2.14,14.35-10.26,19.09-17.52h0s3.49-7.44,3.49-7.44h0c3.01-.68,6.01.26,8.98.41,11.2.55,21.26-.96,31.3-6.01,4.4-2.21,4.34-3.36,7.65-5.81.66-.49,2.24-.96,2.58-1.26.35-.32,1.3-2.26,1.94-2.98,1.11-1.25,2.59-2.25,3.33-3.77h0c.9-.53,2.41,1.1,3.74,1.01,1.68-.11,2.91-1.68,3.39-3.18.18-.58,1.07-3.93,1.11-4.36.12-1.25-.49-2.58.44-4.1h0c3.5.4,1.68,4.46,4.89,5.45h0c2.88-.55,1.77-2.83,2.01-4.91.19-1.61.37-3.37.9-4.91,0,0,0,0,.01,0,.53.57,1.3.86,1.83,1.43,6.13,6.58,9.41,11.28,12.46,19.6,1.7,4.65,3.98,11.96,4.76,16.74.22,1.37-.33,3.78-.31,5.36.17,12.01-2.32,19.42-7.8,29.7-2.6,4.89-3.02,5.19-7.47,8.2-3.98,2.69-8,6.23-12.26,8.86-2.42,1.49-2.83,1.41-5.3,2.35-1.14.44-2.4,1.68-3.6,2.23-.86.39-7.29,2.55-7.98,2.63l-7.49,1.21ZM245.71,230.52c.4-.28,1.54-1.06,1.3.01-.51,2.23-2.93,5.48-5.44,4.57-.16-.63.26-.73.54-1.09.62-.8,2.8-2.93,3.6-3.49ZM251.41,236.21c.51-.11.97.02,1.45.16,5.55,1.66,9.55,6,13.75,9.67,2.73,2.39,3.62,2.75,5.75,5.79.63.9,2.65,2.41,1.81,3.68-1.03,1.04-1.56-.92-2.19-1.46-3.52-3.02-7.02-6.04-10.21-9.46h0s-10.57-7.29-10.57-7.29l.22-1.08Z"/>
    <path d="M76.29,160.13c-9.3-1.47-24.5-4.02-33.57-2.43-.87.15-1.81-.38-2.59.69-1.88,2.61,2.16,3.2,3.9,3.44,2.74.37,6.02.17,8.63.45,9.38,1.01,19.03,3.35,28.53,2.63,1.32-.1,2.01.81,3.41-.66,2.21-2.31-2.39-2.65-3.75-2.82-.51-.06-1.12-.55-1.54-.5l-3.02-.8Z"/>
    <path d="M84.13,154.14c.23-.25.32-.58.4-.89l-.1-.83c-.83-1.58-6.59-3.47-8.42-3.99-8.05-2.27-22.03-5.41-30.22-4.77-1.32.1-4.01.36-4.18,2.03,0,.64.23,1.4.75,1.79,1,.73,7.37,1.35,8.97,1.52,7.54.78,15.26,2.14,22.8,3.87,2.18.5,8.2,3.25,10,1.27Z"/>
    <path d="M145.29,163.86c1.22.55,3.49,1.81,4.77,2.3.22.08,3.33.82,3.51.81,1.39-.04,3.32-1.33,2.59-2.9-.77-1.66-9.94-4.47-12.17-5.69-4.46-2.45-8.34-5.75-13.44-7.32-2.16-.67-10.46-2.65-9.93,1.16l.39.74,9.37,3.38c5.15,2.31,9.79,5.21,14.92,7.52Z"/>
    <path d="M69.77,135.46c-1.73-.12-7.01-.19-6.62,2.48s7.63,2.5,9.92,2.87c5.34.86,10.42,2.87,15.69,3.61,3.64.51,6.79-2.89,3.58-3.94-.5-.16-1.13-.03-1.64-.18-6.48-1.93-14.16-4.38-20.93-4.84Z"/>
    <path d="M112.74,147.37c-.39-.1-6.25.6-7.12.76s-1.57.7-2.37.91c-2.06.53-5.92.44-5.86,3.48.52,1.86,4.81.15,6.36-.07,1.92-.27,3.91-.03,5.9-.65.5-.15,3.78-1.74,3.9-1.93.49-.8.14-2.26-.82-2.51Z"/>
    <path d="M103.98,141.03c.99.92,3.89.17,3.91-1.17-.16-3.33-5.67-.46-3.91,1.17Z"/>
    <path class="cls-2" d="M173.96,108.22c2.6,4.88,4.64,10.34,7.71,15.04.4.61,1.8,2.48,2.36,2.74,2.73,1.28,7.44.93,10.35,2.22,5.9.7,12.17,1.27,18.12,2.45,1.55.31,2.94,1.33,4.65.99-1.05-2.59-2.12-5.23-3.37-7.73-1.69-3.37-3.5-6.87-5-10-2.53-5.28-7.03-13.16-6.89-18.82.1-3.98,3.23-6.12,4.68-9.48-.8-.77-2.35-2.07-2.9-2.93-1.25-1.94-2.42-6.17-2.76-8.46-.51-3.43,2.3-9.55,6.19-9.94l.21-.72s-1-1.13-1.57-1.71c-4.63-4.7-15.72-9.14-22.27-9.15-1.24,0-2.38.17-3.48.31-.63.08-1.72.26-2.68.36-3.61.39-10.73,3.87-12.91,6.78-11.14,14.85,2.37,34.61,9.55,48.07ZM189.2,61.47c3.94.85,5.56,6.87,2.37,9.09-2.1,1.46-6.11,1.88-7.72-.47-3.01-4.4-.21-9.82,5.35-8.62Z"/>
    <path class="cls-3" d="M140.06,123.18c.05.12.59.21.74.54.93,2.01,2.03,3.53,1.9,5.94-.05.81-1.27,1.82-.02,2.73,3.53,2.17,7,4.44,10.58,6.54,2.61,1.53,4.71,2.34,7.23,3.7,1.45.79,3.45,2.67,4.99,3.39,5.23,2.46,18.68,1.57,24.47.47,6.21-1.18,12.21-3.44,18.32-4.62,1.96-.38,1.8-.16,3.79-.94.56-.22,1.33-.06,1.83-.36.78-.45,1.09-3.46.51-3.86-3.9-.6-7.75-1.83-11.66-2.47-.95-.15-1.99.11-2.87-.04-11.19-1.89-22.69-4.5-33.22-8.66-7.98-3.15-14.12-8.23-23.25-8.09-1.27.02-3.75.73-4.12,2.09-.08.28.64,3.31.78,3.64ZM155.32,127.39c2.33.23,3.67,1.16,5.65,1.63,5.12,1.21,8.96,1.91,14.19,4.02,1.51.61,3.04,1.89,4.48,2.44,2.63,1,6.92,1.69,9.91,2.48.91.24,2.34-.33,3.24.77,1.66,2.02-2.88,2.77-4.22,2.79-14.02.24-22.04-6.65-34.4-9.34-.63-.14-1.13.31-1.81.03s-2.18-1.71-2.18-2.56c0-2.61,3.41-2.43,5.15-2.26Z"/>
    <path class="cls-3" d="M226.53,108.25c-.2.2-4.5,2.99-4.76,3.11-.98.45-2.99-.15-3.88,1.18,2.16,2.01,4.24,1.71,6.76.57,2.15-.97,4.04-5.69,6.53-7.31,1.88-1.23,4.87-1.27,4.55,1.62-.06.55-.64.94-.71,1.49-.55,4.13-1.7,6.57-2.83,10.24-.26.83-3.78,6.47-4.59,7.83-.59,1-2.63,2.96-2.79,3.79-.4,2.02,2.71.79,3.82.86.87.06,1.44.6,2.22.74,2.26.39,3.33-2.4,4.52-3.81,4.43-5.24,8.76-10.19,6.76-17.68-.15-.56-1.73-4.13-2.01-4.55-.93-1.41-4.01-2.71-5.68-2.65-.79.03-1.45.61-2.2.65-1.54.08-2.25-.9-3.95.77-.82.81-1.25,2.64-1.76,3.15Z"/>
    <path class="cls-3" d="M248.12,107.62c-.29.32.23,4.61.16,5.52-.41,4.99-3.79,10.19-6.3,14.39-.39.66-.27,1.46-.52,1.85-.88,1.41-4.5,3.88-5.92,5.19-.41.38-3.51,3.28-3.08,3.65,2.01.49,2.62-1.92,3.67-2.7s3.33-1.36,4.35-2.67l8.07-14.95,1.41.1c1.47.98-.12,6.3-.63,7.77-1.5,4.32-6.22,10.68-9.76,13.55-.81.66-2.39.87-2.37,2.18,1.22-.66,2.81-.55,3.91-1,2.65-1.08,9.58-8.36,10.42-11.07.33-1.09,1.03-3.83,1.25-4.95.4-2.1.11-9.75-.29-11.92-.16-.87-3.18-6.19-4.35-4.93Z"/>
    <path class="cls-4" d="M251.41,236.19l-.22,1.08,10.57,7.29c3.19,3.42,6.69,6.44,10.21,9.46.63.54,1.16,2.5,2.19,1.46.84-1.26-1.18-2.78-1.81-3.68-2.13-3.04-3.02-3.4-5.75-5.79-4.2-3.67-8.2-8.01-13.75-9.67-.48-.14-.95-.27-1.45-.16Z"/>
    <path class="cls-3" d="M221.15,158.59c.7-1.04-.03-2.15.09-3,.15-1.05,2.08-6.79,1.74-7.18-2.38.48-1.02,5.11-4.13,4.39-1.62-2.31.28-5.22.77-7.57.16-.78.01-1.59.18-2.37.51-2.38,2.72-6.08-.28-7.19-.67.05-1.97,7.66-2.12,8.79-.31,2.44-.62,6.12-.27,8.52.05.36,1.67,4.53,1.83,4.73.47.59,1.42.99,2.18.89Z"/>
    <path class="cls-2" d="M299.59,64c-2.06-.18-3.61,3.37-4.48,4.48-.8,1-2.73,2.35-3.44,3.11-.31.33-1.75,2.21-1.5,2.53,1.41,1.61,5.56-1.04,6.59-2.17.75-.83.76-1.81,1.41-2.59.86-1.04,4.55-2.39,3.32-4.35-.16-.25-1.58-.98-1.9-1.01Z"/>
    <path class="cls-2" d="M294.47,58.51c-2.17-.33-3.67,3.98-5.52,4.93l2,3.74c.51.09,5.25-5.12,5.46-5.8.37-1.2-.79-2.69-1.94-2.86Z"/>
    <path class="cls-2" d="M282.35,62.09l3.61.71c.31-2.23,3.41-4.37,4.22-6.18.66-1.47-2.63-2.9-3.66-2.2l-4.17,7.67Z"/>
    <path class="cls-3" d="M224.45,135.3c.05,1.87,2.59,2.8,3.11,4.35.24.71.1,1.54.33,2.22.54,1.62,1.34,3.16,1.66,4.86-.67.76-1.18.33-1.82-.15-.22,1.52,1.13,2.56,2,3.63.52-.43.78-.99.89-1.66.09-.56.39-5.43.32-5.71-.17-.71-2.78-5.51-3.38-6.12-.31-.32-.61-.64-1.04-.8l-2.07-.64Z"/>
    <path class="cls-2" d="M300.2,74.84c1.62.44,4.58-1.52,4.73-3.11.4-4.18-5.48.69-4.73,3.11Z"/>
    <path class="cls-2" d="M278.56,61.39c6.73-12.1.37-12.27-4.35-1.53l4.35,1.53Z"/>
    <path class="cls-2" d="M245.71,230.5c-.81.56-2.99,2.7-3.6,3.49-.28.36-.7.47-.54,1.09,2.51.91,4.93-2.35,5.44-4.57.25-1.07-.9-.29-1.3-.01Z"/>
    <path class="cls-3" d="M221.9,135.3c.24,1.9.52,4.24,1.04,6.06.14.49.15,1.11.78,1.22.53-2.77.14-4.02-.99-6.49-.24-.52.22-.99-.82-.79Z"/>
    <path class="cls-1" d="M216.08,68.56c-1.23-.47-5.42-1.13-6.82-.79-2.28.55-4.96,2.55-2.65,7.13l17.51-3.37,12.75-3.24c-.51.06-3.05-4.04-11.41.05-3.7,1.81-9.01.36-9.38.21Z"/>
    <path d="M189.2,61.47c-5.56-1.2-8.36,4.23-5.35,8.62,1.61,2.35,5.62,1.93,7.72.47,3.19-2.22,1.57-8.24-2.37-9.09Z"/>
    <path d="M155.32,127.39c-1.73-.17-5.14-.35-5.15,2.26,0,.85,1.48,2.27,2.18,2.56s1.17-.17,1.81-.03c12.37,2.7,20.38,9.58,34.4,9.34,1.35-.02,5.88-.77,4.22-2.79-.9-1.09-2.32-.53-3.24-.77-2.99-.78-7.28-1.47-9.91-2.48-1.44-.55-2.97-1.83-4.48-2.44-5.23-2.11-9.07-2.81-14.19-4.02-1.99-.47-3.32-1.4-5.65-1.63Z"/>
    <path class="cls-5" d="M221.6,77.2s-8.97,2.58-15.02,1.62c-.12.69-.65,3.72,3.26,3.52,3.32-.17,17.49-.86,23.02-1.26,1.86-.14,3.67-.19,4.23-1.44"/>
    <circle class="cls-2" cx="185.28" cy="63.51" r="2.66"/>
    <path class="cls-4" d="M107.9,268.76c.21-.14,6.35-1.08,6.35-1.08l1.68,4.99,9.95-12.25s3.79-2.59,3.86-2.45,15.2-10.29,15.2-10.29l-5.32-.8c-.06-.01-16.29,11.7-16.29,11.7,0,0-8.22,1.83-8.32,1.89l-.8,2.45s-6.47,5.55-6.3,5.84Z"/>
    <path class="cls-4" d="M270.15,271.5c1.64-1.65,6.14-4.85,16.1-4.49.53.02,1.01-.31,1.19-.81.59-1.72,3-5.75,12.88-9.82.08-.03.07-.16-.02-.16l-24.85.14-5.63,14.92c-.08.21.19.38.35.22Z"/>
  </g>
</svg>