<?xml version="1.0" encoding="UTF-8"?>
<svg id="Calque_1" xmlns="http://www.w3.org/2000/svg" version="1.1" xmlns:xlink="http://www.w3.org/1999/xlink" viewBox="0 0 612 792">
  <!-- Generator: Adobe Illustrator 29.8.3, SVG Export Plug-In . SVG Version: 2.1.1 Build 3)  -->
  <defs>
    <style>
      .st0 {
        fill: #fff;
      }

      .st1 {
        fill: none;
      }

      .st2 {
        clip-path: url(#clippath);
      }
    </style>
    <clipPath id="clippath">
      <rect class="st1" x="6.5" y="45.7" width="597" height="700.6"/>
    </clipPath>
  </defs>
  <g class="st2">
    <path class="st0" d="M594.6,449.1c-25.4.9-37.4-27.4-57.9-37.1-9-4.3-19.4-5.4-29.3-3.7,2.5-2.7,5-5.4,7.4-8.2,18.3-20.3,35.7-39.6,76.8-40.3,1.1,0,1.8-.8,1.9-1.8,0-1.1-.7-1.9-1.8-1.9-3.1-.2-6.1-.4-9-.4-36.8,0-55.7,17-74,33.5-2.2,2-4.4,3.9-6.5,5.8,10.9-21.9,13.8-46.7,14.3-72.1,1.2-1.1,2.4-2.1,3.8-3,4.4-2.8,9.5-4.6,14.1-7,5.2-2.7,9.6-6.1,13-10.9.6-.9,5.7-7.9,3.9-9.1-.9-.7-5.6,2.5-6.4,3-2.6,1.2-5.2,2.2-7.8,3.3-5.3,2.1-10.8,4.1-15.2,7.6-2,1.5-3.7,3.3-5.1,5.3v-1.8c.8-1.2,1.5-2.1,1.7-2.1,9.7-9.8,25.3-10.5,35.8-19.7,4.5-3.9,7.1-9.2,7.8-15.1.2-1.4.2-2.7.2-4.1s0-2.6-1.2-2.5c-1.2,0-1.7,2.7-2.1,3.5-7.3,12.4-24.5,9.3-35.3,16.2-2.7,1.7-5.1,4-7.1,6.6,0-2.4,0-4.8-.2-7.2-.7-25.8-1.4-52.1,3.3-76.4,1.7-.8,3.3-1.4,5.1-1.7,4-.7,8.2-.4,12.2-.7,4.5-.4,8.7-1.4,12.6-3.9.7-.5,6.5-4,5.7-5.3-.5-.7-4.7.1-5.6.2h-6.6c-4.5,0-9-.4-13.2.8-3.3.8-6.4,2.6-8.9,4.8,0-.5.2-.9.4-1.4,2.2-1.5,5.4-3.4,5.6-3.5,10-4.1,21.4.1,31.7-3.3,4.4-1.4,7.9-4.5,10.2-8.4.6-.9,1.1-1.9,1.4-3,.2-.6.7-1.9,0-2.1-.8-.2-2,1.4-2.6,1.9-9.1,6.6-20.5-.7-30.4.8-5,.8-9.7,3.5-13,7.4,1.2-3.5,2.5-7.1,4-10.5.4-.9,0-2-.8-2.5-.9-.5-2-.1-2.5.7-2.6,4.6-5,9.2-7,14.1-1.9-6.6-6.1-12.6-11.9-16.2-10.9-6.7-28-3.8-35.3-16.2-.5-.8-.9-3.4-2.1-3.5-1.2,0-1.2,1.7-1.2,2.5,0,1.4,0,2.8.2,4.1.7,5.8,3.4,11.1,7.8,15.1,5.3,4.7,11.9,7.1,18.6,9.7-4.4,2.6-7.9,6-10.8,10.4-3.7,5.8-5.6,12.6-6.4,19.7-2.2-3.7-5.2-6.9-8.7-9.1-10.9-6.9-28-3.8-35.3-16.2-.5-.8-.9-3.4-2.1-3.4s-1.2,1.7-1.2,2.5c0,1.4,0,2.8.2,4.1.8,5.8,3.4,11.1,7.8,15.1,10.4,9.2,26,9.8,35.8,19.7.1.1,2.1,2.7,3.8,5.3.6,6.1,1.8,12.2,3.1,17.5,1.2,5.2,2.5,10.3,3.8,15.5,8.7,35,17,68,8.7,97.4-9.3,33.7-34,56.6-75.3,70.1-5.6,1.8-11.2,3.5-16.9,5.3-16.4,5.2-33.5,10.4-48.5,17.1,1.1-9.9.9-19.3-.2-28.4-.6-4.8-1.5-9.7-2.7-14.7h4.4c9.2.5,18.3,3.2,27.4,4.4,10.3,1.3,20,1.1,29.9-2.2,1.9-.6,16.2-5.7,15-9-.7-1.9-10.5-2-12.3-2.4-5-.8-9.8-2-14.7-3.2-9.8-2.4-19.6-5.2-29.8-4.8-7.4.2-14.5,2.2-20.9,5.8.9-1.2,2-2.4,3-3.5,5.2-2,11.2-3.9,11.6-4,24.2-4.1,47.3,10.9,71.8,8.4,10.4-1.1,19.7-6,26.8-13.7,1.7-1.8,3.2-3.8,4.6-5.8.8-1.2,2.6-3.8.7-4.8-1.7-1.1-5.1,2.2-6.6,3-23.3,10.3-44.8-11.7-67.6-13.1-3.2-.2-6.5,0-9.7.5,2.1-1.9,4.3-3.7,6.4-5.4,5-4.3,9.9-8.5,14.9-12.8,10.5-9.2,25.1-21.9,16.4-40.2-.5-.9-1.5-1.3-2.5-.9-.9.4-1.4,1.4-1.1,2.4,5.8,15.4-10.5,27.1-23.6,36.5-2.5,1.8-4.7,3.4-6.7,5-14.3,11-30.5,23.3-44.4,36.8-4-11.2-9.1-22.5-14.7-33.7,1.3-1.9,2.5-3.3,2.6-3.5,9.7-9.8,25.3-10.5,35.8-19.7,4.5-3.9,7.1-9.2,7.8-15.1.2-1.4.2-2.8.2-4.1s0-2.6-1.2-2.5c-1.2,0-1.7,2.7-2.1,3.5-7.3,12.4-24.5,9.3-35.3,16.2-5.9,3.7-10.2,9.8-12.1,16.7-3.4-6.6-7-13.4-10.5-20.1,1.7-1.4,3.2-2.8,4.8-4.3,13-11.6,26.5-23.5,35.2-36.4,3.7-5.6,6.4-11.3,8.5-17.3.9,0,1.9,0,2.8.1,5.2.6,10.3,2.4,15.4,3.3,5.7,1.1,11.2,1.2,16.9-.4,1.1-.4,9.3-2.7,8.7-4.6-.4-1.1-5.9-1.4-6.9-1.7-2.7-.6-5.4-1.4-8.2-2.2-5.4-1.7-10.9-3.5-16.7-3.7-3.3,0-6.5.6-9.6,1.7.1-.5.2-.8.4-1.3,2.7-.8,5.4-1.5,5.7-1.5,13.7-1.7,26.4,7.6,40.2,7,5.9-.2,11.3-2.8,15.5-6.9.9-.9,1.9-2,2.7-3.2.5-.6,1.5-2,.6-2.7-.9-.6-3,1.1-3.8,1.4-13.5,5.1-24.9-7.9-37.7-9.5-7-.8-14.3,1.4-20.1,5.7,5.8-17.1,13.2-33.1,38.1-44.8.9-.5,1.3-1.5.9-2.5-.4-.9-1.4-1.4-2.4-1.1-30.6,11.2-39,30.4-47.2,48.8-.6,1.3-1.2,2.7-1.8,3.9.2-26.6-12.2-52.5-24.4-77.6-7.3-15-14.8-30.4-19.4-46,1.5-1.9,3.4-3.5,5.4-4.8,4.4-2.8,9.5-4.6,14.1-7,5.2-2.7,9.6-6,13-10.9.6-.8,5.7-7.9,4-9.1-.9-.7-5.6,2.5-6.5,3-2.6,1.2-5.2,2.2-7.8,3.3-5.2,2.1-10.8,4-15.2,7.6-3.9,3-6.7,7.1-8.6,11.7-.1-.7-.4-1.4-.5-2.1,1.7-3,5.4-7.9,5.7-8.2,9.7-9.8,25.4-10.5,35.8-19.7,4.5-3.9,7.1-9.2,7.8-15.1.1-1.4.2-2.7.2-4.1s0-2.6-1.2-2.5c-1.1,0-1.7,2.7-2.1,3.5-7.3,12.4-24.5,9.3-35.3,16.2-6.6,4.1-11.3,11.6-12.5,19.5-.5-3.4-.7-6.9-.7-10.4s-.8-1.8-1.8-1.9c-.9,0-1.9.7-2,1.7-2.6,25.8,5,50.6,15.2,77.4-14.2-13.9-31.8-32.9-31.7-49.2,0-6.1,2.5-11.5,7.4-16.2.7-.7.8-1.8.1-2.6-.6-.7-1.8-.9-2.6-.4-3.4,2.5-6.1,5.4-8,8.7,0-1.9-.1-3.8-.4-5.7-1.4-10.3-7-19-16.3-25.9-.8-.6-1.9-.5-2.6.4-.6.7-.6,1.9.1,2.6,7.7,7.3,11.5,15.5,11.6,25.1.1,26.1-29.1,56.3-51,77.6,13.6-35.3,24.4-68.1,25.1-101.3,1.7-3,5.3-7.8,5.6-8,9.7-9.9,25.3-10.5,35.8-19.7,4.5-3.9,7.1-9.2,7.8-15.1.2-1.4.2-2.8.2-4.1s0-2.6-1.2-2.5c-1.2,0-1.7,2.7-2.1,3.4-7.3,12.4-24.5,9.3-35.3,16.2-5.1,3.2-9,8.3-11.1,14.1,0-.9,0-1.8-.2-2.7,0-.9-1.1-1.8-2-1.7-1.1,0-1.8.8-1.8,1.9,0,24.1-7.2,48.1-17,71.8-1.1-6.4-4-12.5-8.6-17-10.3-10.2-29.9-11.1-34.9-26.6-.4-1.1-.2-4-1.4-4.4-1.3-.4-1.8,1.5-2,2.4-.4,1.5-.7,3.1-.8,4.6-.6,6.6.9,13.1,4.8,18.6,9.2,12.6,26.1,17.3,34.4,30.6.1.2,1.3,2.7,2.4,5.6-.2.5-.5.9-.7,1.5-1.2-3.4-2.8-6.6-5.2-9.3-4.1-5-9.7-8.4-14.9-12.1-2.6-1.8-5.2-3.7-7.7-5.6-.9-.7-5.2-5.3-6.4-4.8-2.1.8,1.7,9.8,2.1,11,2.6,6,6.6,10.9,11.6,15.1,4.5,3.9,9.6,7,13.7,11.2,1.1,1.1,2,2.1,2.8,3.3-2.8,5.9-5.7,11.8-8.5,17.6-4.6,9.6-9.5,19.4-13.8,29.2-1.4-13.1-4.5-27.3-12.8-39.4-10.5-15.6-27.2-27.1-43.4-38.2-1.2-.8-2.6-1.8-4-2.7-5.3-3.4-11.5-7.4-13.7-12.4,1.3-2.7,5.8-8.6,6-8.9,9.7-9.8,25.3-10.5,35.8-19.7,4.5-3.9,7.1-9.2,7.8-15.1.2-1.4.2-2.8.2-4.1s0-2.6-1.2-2.5c-1.1,0-1.7,2.7-2.1,3.5-7.3,12.4-24.5,9.3-35.3,16.2-7.2,4.5-12.1,12.9-12.9,21.4-.9-.2-1.9,0-2.2,1.1-4.6,11.2,4.6,18.7,10.8,23.5,3,2.4,5.9,4.6,8.9,7,5.7,4.4,11.5,8.9,16.9,13.5,14.2,11.9,22.9,27.7,26.7,48-11.7-9.8-29.7-14.5-47.2-19-3.3-.8-6.6-1.8-9.9-2.6-23.6-6.5-38.2-18.7-44.3-37.5-5.4-16.3-1.7-35.3,2.4-55.4.6-3,1.2-5.9,1.8-8.9,1.9-9.7,2.7-23.2-3.4-32-3.2-4.5-7.8-7.3-13.8-8.3-.9-.2-1.9.5-2.1,1.4-.2.9.4,1.9,1.3,2.2,4.8,1.4,8.3,4.1,10.4,8.2,5.3,10.4.7,27.8-3.9,41.7-2.4-20.9-5.9-39.6-16.2-55.6-.6-.8-1.7-1.1-2.5-.6s-1.2,1.5-.7,2.5c8.7,17.1,9.1,38.3,9.6,58.9,0,3.3,0,6.6.2,9.9-2.7-3-5.9-5.6-9.5-7.2-13.1-6.1-31.9-.4-41.7-13.2-.7-.8-1.5-3.7-2.8-3.7s-1.1,2-1.1,3c0,1.5.4,3.1.8,4.6,1.7,6.4,5.3,12.1,10.8,15.8,12.9,8.9,30.5,7.4,42.7,17.1l2,2c0,.6,0,1.3.2,2-1.9-1.9-3.9-3.7-6.3-5-5.6-3.2-11.9-4.6-18.1-6.4-3.1-.8-6.1-1.7-9.2-2.7-1.1-.4-6.6-3.3-7.6-2.5-1.7,1.5,4.8,8.7,5.7,9.7,4.5,4.8,9.9,8,16.1,10.4,5.4,2.1,11.3,3.3,16.7,5.9,1.8.8,3.4,2,5.1,3.2,1.3,5.6,3.1,10.9,5.4,16-.2-.2-.6-.5-.9-.7-10.4-8.5-21.2-17.4-40.5-17.4s-5.4.1-8.4.5c-1.1.1-1.8,1.1-1.7,2,0,1.1.9,1.8,1.9,1.8,23.2-.7,33.5,9.7,44.4,20.7,5.4,5.6,11.2,11.3,18.6,15.4,10.4,5.8,23.6,9.2,36.4,12.5,17.6,4.6,35.9,9.3,45.9,20.1,12.5,13.7,12.1,33.9,10,51.8-2.2,9.7-3.5,18.8-4,27.5-.5,3.2-.9,6.3-1.3,9.3-1.1-2.5-2.2-4.8-3.3-7.4-11.3-25.9-23.1-52.5-62.2-69.5-6-8-16.9-12.5-26.7-10.9-12.6,2.1-23.5,15.7-37.2,11.3-.9-.2-3-1.9-3.9-1.3-.9.7.2,2,.7,2.6.8,1.1,1.9,2.1,3,3,4.4,3.9,9.9,6.1,15.8,6.1,13.9,0,26-9.9,39.8-9,0,0,2.1.5,4.4.9,37.6,19.7,46.2,46.5,55.3,74.8.7,2.1,1.3,4.1,2,6.3-9.8-12.5-26.2-20.1-41.8-19.2-22.7,1.4-44.2,23.4-67.6,13.1-1.5-.7-4.8-3.9-6.6-2.8s0,3.7.8,4.8c1.4,2.1,2.8,4,4.6,5.8,7.1,7.6,16.3,12.6,26.8,13.7,24.5,2.5,47.6-12.6,71.8-8.4.6,0,11.3,3.5,16.7,6,.5,1.2.8,2.2,1.3,3.4-7.3-4.7-15.6-7.6-24.4-7.8-10.2-.2-20,2.5-29.8,4.8-4.8,1.2-9.7,2.4-14.7,3.2-1.8.4-11.7.5-12.3,2.4-1.2,3.4,13.2,8.4,15,9,9.8,3.3,19.6,3.7,29.9,2.2,9.2-1.2,18.2-3.9,27.4-4.4,4.7-.2,9.5.2,13.9,1.5,1.7,3.3,3.5,6.5,5.7,9.6,13,19.3,33.2,37.1,52.7,54.5,12.6,11.1,25.7,22.7,36.4,34.4,7.2,12.8,15.1,24.8,24.1,36.9l1.5,2c.5,1.4.9,2.8,1.3,4.3,13.1,47.2-23.1,180.6-55.4,225.8-6,8.4-12.8,17.7-19,27.2-.4.6-.4,1.3,0,1.9s.9.9,1.7,1.1l35.9.4h0c.6,0,1.2-.2,1.5-.8,4.3-5.8,8.5-11.5,12.8-17.1,15.1-20.3,27.9-72.3,39.2-118.2,7-28.4,13.6-55.1,19.4-68.3,6.4-14.4,13.6-31.7,18.4-49.3,17.3-17.5,46.9-26.7,75.5-35.7,16.6-5.2,33.5-10.4,48.2-17.4,4.7.4,9.5,1.8,13.7,3.7,8.4,3.9,15.8,9.7,23.9,14.2,9,5.1,18.2,8.4,28.6,9,1.9,0,17.1.8,17.4-2.8,0-2-9-5.8-10.5-6.7-4.3-2.6-8.4-5.6-12.4-8.4-8.2-5.8-16.3-12.1-25.9-15.6-5.8-2.1-11.8-3-17.9-2.7.8-.6,1.8-1.2,2.6-1.8,4.8.1,9.7.5,10,.6,24,5.1,40,27.7,63.6,34.4,10,2.8,20.6,1.7,29.9-2.8,2.2-1.1,4.4-2.2,6.4-3.7,1.1-.8,3.8-2.5,2.5-4.1-1.2-1.7-5.6.1-7.2.2h0l-.7-.4h0ZM253.8,378.6c-8.3-27.1-7.6-51.4,2.2-74.6,3.7-8.7,7.8-17.5,11.8-26,2.1-4.5,4.3-9,6.3-13.5,1.9-4.1,4.1-9.1,5.1-14.3.6-.2,1.2-.5,1.8-.6,3.4-.8,7-.9,10.5-1.5,3.9-.7,7.4-1.9,10.6-4.3.6-.5,5.3-3.9,4.4-5.1s-4.1.5-4.7.6c-1.9.2-3.8.4-5.7.5-3.8.2-7.8.4-11.5,1.7-1.9.6-3.5,1.7-5.1,2.8v-.8c1.3-1.1,2.6-1.9,2.7-1.9,8.3-4.4,18.4-1.5,27.1-5.2,3.7-1.7,6.5-4.5,8.2-8,.4-.8.7-1.8,1.1-2.6.1-.5.5-1.7-.2-1.9s-1.5,1.4-2,1.8c-7.3,6.5-17.7.9-26.1,3.1-5,1.2-9.5,4.8-11.9,9.5-1.1-2.4-2.7-4.7-5.2-6.9-.8-.7-1.9-.6-2.6.1s-.7,1.9,0,2.6c8.5,8.5.9,21.5-5.1,31.9-1.2,2-2.2,3.9-3.2,5.6-12.3,22.7-24.9,46.2-28,70.7-2.6,20.1,2.8,39.1,9.8,57-1.3-1.2-2.6-2.4-3.9-3.5-36.5-33.1-51.3-68.3-45.3-107.7.9-6.4,2.6-12.5,4.7-18.7h.1c2.2-1.8,4.7-2.8,7.3-3.5,4.8-1.3,9.9-1.3,14.9-2.2,5.4-.9,10.5-2.7,15-6,.8-.6,7.4-5.6,6.3-7.1-.6-.8-5.8.7-6.7.8-2.7.4-5.4.6-8,.7-5.4.4-11,.6-16.1,2.4-3.4,1.2-6.4,3.2-9,5.6.4-.7.6-1.4.9-2.1,2.1-1.7,4.3-3.2,4.4-3.2,11.7-6.1,26.1-2.1,38.3-7.3,5.2-2.2,9.1-6.3,11.6-11.3.6-1.2,1.1-2.5,1.4-3.8.2-.7.7-2.4-.4-2.6s-2.2,2-3,2.6c-10.3,9.1-24.9,1.3-36.9,4.3-1.7.5-3.2,1.1-4.7,1.8,9.7-15.6,21.8-31,34.2-46.7,3.7-4.7,7.4-9.5,11.1-14.2,7.4-9.6,15.5-22.1,19.7-35.1,1.5,11.3,8.6,22.6,14.9,30.7,2.5,3.2,5,6.4,7.4,9.5,16.8,21.4,32.6,41.5,36.2,64.2,4,26-5.8,49.3-30,71.2-.8.8-1.8,1.5-2.6,2.4l-1.2-2c-9.2-16-20.7-35.7-7.4-49.1.7-.7.7-1.9,0-2.6s-1.9-.8-2.6-.1c-17.3,14.9-8.3,34.5-1.7,48.9,1.8,3.8,3.5,7.7,5.3,11.5-18.3,16.2-37.2,32.9-44.6,52h0v-.5ZM302,454.9c-2.5-3-5-5.8-7.6-8.5-13.4-20.1-26.2-43.9-19.5-67.7,4.1-14.7,16.3-27.8,29.2-39.8,5.2,11.1,11,23.4,16.1,35.5,4.4,10.3,7.6,21,9.6,31.9-6.3,7.1-11.3,13.9-15.7,20.9-5.1,8.4-9.1,17.5-12.1,27.8h0ZM327,474.3c-2.8,2.1-5.4,4.3-7.9,6.5-.5-1.1-1.1-2.1-1.7-3.2,2.6-18,7.4-33.8,14.7-48,.4,14.4-1.4,29.4-5.1,44.7h0ZM488.2,204.4c2.5-5.3,6.1-9.5,11.1-12.5,4.3,1.9,8.2,4.1,11.5,7.6.1.1,1.5,2,3,4-8.6,24.4-11.3,51.4-13,80.6-9.8-24.9-22-59-12.6-79.7h.1-.1Z"/>
  </g>
</svg>