<?xml version="1.0" encoding="UTF-8"?>
<svg id="Layer_1" xmlns="http://www.w3.org/2000/svg" version="1.1" viewBox="0 0 24 24">
  <!-- Generator: Adobe Illustrator 29.8.2, SVG Export Plug-In . SVG Version: 2.1.1 Build 3)  -->
  <defs>
    <style>
      .st0 {
        fill: #fff;
      }
    </style>
  </defs>
  <path class="st0" d="M4.3,21.4c.3.4.2,1-.2,1.3-.5.4-1.1.3-1.5-.2-1.7-2.4-2.7-5.2-2.7-8.1C0,7.5,4.7,3.2,11.4,2c.3,0,.6.2.6.5s-.2.4-.4.5C5.8,4.1,2,8.5,2,14.4s.9,4.9,2.3,7ZM15.2,4.5c.3.3.7.5,1.1.5h2.3l-.9,2.3c-.1.4.1.7.5.7h.3c.4,0,.8-.2,1-.6l1.9-2.4h1.5c.6,0,1-.4,1-1s-.4-1-1-1h-1.5l-1.9-2.4C19.4.2,19,0,18.6,0h-.3c-.4,0-.6.4-.5.7l.9,2.3h-2.2l-1.1-.8c-.1-.1-.3-.2-.6-.2-.6,0-1,.6-.7,1.2l1.1,1.3h0ZM22.3,9.1c1.1,1.6,1.7,3.5,1.7,5.4,0,5.2-4.3,9.5-9.5,9.5s-9.5-4.3-9.5-9.5c0-4.4,3.1-8.2,7.2-9.2.6-.1,1.2,0,1.5.5l.4.5c.4.5.5,1.2.1,1.8-.9,1.4-1.6,3.2-1.8,5.5h4c0-.7-.2-1.5-.4-2.2-.2-.5.1-1.1.7-1.2.5-.2,1.1.1,1.2.7.3.9.4,1.9.5,2.8h3.5c-.2-1.2-.6-2.3-1.2-3.3-.3-.5-.2-1.1.3-1.4.5-.3,1.1-.2,1.4.3h0ZM12.4,15.5c.2,2.4,1.3,4.5,2,5.7.7-1.2,1.7-3.3,2-5.7h-4ZM7.1,13.5h3.3c.2-2.5,1.1-4.7,1.9-6.2-2.8.8-4.9,3.2-5.3,6.2ZM12.5,21.7c-.8-1.5-1.8-3.7-2-6.2h-3.4c.4,3,2.5,5.4,5.4,6.2ZM21.9,15.5h-3.5c-.2,2.5-1.1,4.8-2,6.2,2.9-.8,5-3.2,5.4-6.2h0Z"/>
</svg>