<?xml version="1.0" encoding="UTF-8"?>
<svg id="Outline" xmlns="http://www.w3.org/2000/svg" version="1.1" viewBox="0 0 512 512">
  <!-- Generator: Adobe Illustrator 29.8.2, SVG Export Plug-In . SVG Version: 2.1.1 Build 3)  -->
  <defs>
    <style>
      .st0 {
        fill: #fff;
      }
    </style>
  </defs>
  <path class="st0" d="M21.3,101.3h58.4c11.5,42.4,55.2,67.4,97.6,55.9,27.2-7.4,48.5-28.7,55.9-55.9h257.5c11.8,0,21.3-9.6,21.3-21.3s-9.6-21.3-21.3-21.3H233.2C221.7,16.3,178-8.7,135.6,2.8c-27.2,7.4-48.5,28.7-55.9,55.9H21.3c-11.8,0-21.3,9.6-21.3,21.3s9.6,21.3,21.3,21.3ZM156.4,42.7c20.6,0,37.3,16.7,37.3,37.3s-16.7,37.3-37.3,37.3-37.3-16.7-37.3-37.3c0-20.6,16.7-37.3,37.3-37.3Z"/>
  <path class="st0" d="M490.7,234.7h-58.4c-11.5-42.4-55.2-67.4-97.6-55.9-27.2,7.4-48.5,28.7-55.9,55.9H21.3c-11.8,0-21.3,9.6-21.3,21.3s9.6,21.3,21.3,21.3h257.5c11.5,42.4,55.2,67.4,97.6,55.9,27.2-7.4,48.5-28.7,55.9-55.9h58.4c11.8,0,21.3-9.6,21.3-21.3s-9.6-21.3-21.3-21.3ZM355.6,293.3c-20.6,0-37.3-16.7-37.3-37.3s16.7-37.3,37.3-37.3,37.3,16.7,37.3,37.3c0,20.6-16.7,37.3-37.3,37.3Z"/>
  <path class="st0" d="M490.7,410.7H233.2c-11.5-42.4-55.2-67.4-97.6-55.9-27.2,7.4-48.5,28.7-55.9,55.9H21.3c-11.8,0-21.3,9.6-21.3,21.3s9.6,21.3,21.3,21.3h58.4c11.5,42.4,55.2,67.4,97.6,55.9,27.2-7.4,48.5-28.7,55.9-55.9h257.5c11.8,0,21.3-9.6,21.3-21.3s-9.6-21.3-21.3-21.3ZM156.4,469.3c-20.6,0-37.3-16.7-37.3-37.3s16.7-37.3,37.3-37.3,37.3,16.7,37.3,37.3c0,20.6-16.7,37.3-37.3,37.3Z"/>
</svg>