<?xml version="1.0" encoding="UTF-8"?>
<svg id="Layer_1" xmlns="http://www.w3.org/2000/svg" version="1.1" viewBox="0 0 512 512">
  <!-- Generator: Adobe Illustrator 29.8.2, SVG Export Plug-In . SVG Version: 2.1.1 Build 3)  -->
  <defs>
    <style>
      .st0 {
        fill: #0a3d62;
      }
    </style>
  </defs>
  <path class="st0" d="M490.7,213.3h21.3v-85.3c0-35.3-28.7-64-64-64H64C28.7,64,0,92.7,0,128v256c0,35.3,28.7,64,64,64h384c35.3,0,64-28.7,64-64v-85.3h-21.3c-23.5,0-42.7-19.1-42.7-42.7s19.1-42.7,42.7-42.7ZM128,405.3h-42.7v-42.7h42.7v42.7ZM128,320h-42.7v-42.7h42.7v42.7ZM128,234.7h-42.7v-42.7h42.7v42.7ZM128,149.3h-42.7v-42.7h42.7v42.7ZM384,277.3h-53.3l-40.8,51.6c-4.2,7.6-12.1,12.4-20.8,12.4h-23.7l24.9-64h-43l-33-39.1c-6.3-11.1,1.7-24.9,14.4-24.9s8.6,1.7,11.8,4.9l23.7,16.5h26.5l-25.3-64h23.4c8.7,0,16.7,4.7,20.8,12.4l41.2,51.6h26.7c17.1,0,26.7,9.6,26.7,21.3v21.3h-.2Z"/>
</svg>