<svg id="visual" viewBox="0 0 900 600" width="900" height="600" xmlns="http://www.w3.org/2000/svg" xmlns:xlink="http://www.w3.org/1999/xlink" version="1.1"><rect x="0" y="0" width="900" height="600" fill="#F5730A"></rect><path d="M0 45L69 32L138 65L208 22L277 16L346 35L415 62L485 13L554 37L623 75L692 18L762 37L831 76L900 49L900 601L831 601L762 601L692 601L623 601L554 601L485 601L415 601L346 601L277 601L208 601L138 601L69 601L0 601Z" fill="#f5730a"></path><path d="M0 81L69 122L138 66L208 75L277 69L346 67L415 94L485 91L554 121L623 88L692 123L762 104L831 78L900 68L900 601L831 601L762 601L692 601L623 601L554 601L485 601L415 601L346 601L277 601L208 601L138 601L69 601L0 601Z" fill="#eb6a0a"></path><path d="M0 139L69 156L138 155L208 137L277 119L346 158L415 165L485 142L554 131L623 136L692 130L762 116L831 166L900 125L900 601L831 601L762 601L692 601L623 601L554 601L485 601L415 601L346 601L277 601L208 601L138 601L69 601L0 601Z" fill="#e16109"></path><path d="M0 187L69 186L138 162L208 153L277 168L346 175L415 203L485 165L554 199L623 205L692 208L762 190L831 174L900 162L900 601L831 601L762 601L692 601L623 601L554 601L485 601L415 601L346 601L277 601L208 601L138 601L69 601L0 601Z" fill="#d75809"></path><path d="M0 235L69 248L138 227L208 250L277 200L346 228L415 207L485 211L554 217L623 200L692 223L762 233L831 235L900 255L900 601L831 601L762 601L692 601L623 601L554 601L485 601L415 601L346 601L277 601L208 601L138 601L69 601L0 601Z" fill="#cd4f08"></path><path d="M0 271L69 272L138 263L208 248L277 253L346 252L415 268L485 244L554 289L623 267L692 264L762 293L831 289L900 267L900 601L831 601L762 601L692 601L623 601L554 601L485 601L415 601L346 601L277 601L208 601L138 601L69 601L0 601Z" fill="#c34607"></path><path d="M0 296L69 344L138 309L208 319L277 304L346 324L415 300L485 311L554 337L623 318L692 304L762 323L831 315L900 346L900 601L831 601L762 601L692 601L623 601L554 601L485 601L415 601L346 601L277 601L208 601L138 601L69 601L0 601Z" fill="#b93e07"></path><path d="M0 361L69 367L138 386L208 398L277 350L346 373L415 355L485 394L554 376L623 353L692 398L762 342L831 350L900 369L900 601L831 601L762 601L692 601L623 601L554 601L485 601L415 601L346 601L277 601L208 601L138 601L69 601L0 601Z" fill="#ae3506"></path><path d="M0 442L69 393L138 431L208 435L277 442L346 437L415 437L485 439L554 442L623 443L692 402L762 407L831 403L900 398L900 601L831 601L762 601L692 601L623 601L554 601L485 601L415 601L346 601L277 601L208 601L138 601L69 601L0 601Z" fill="#a42c05"></path><path d="M0 486L69 462L138 455L208 467L277 441L346 483L415 447L485 477L554 441L623 430L692 460L762 486L831 438L900 478L900 601L831 601L762 601L692 601L623 601L554 601L485 601L415 601L346 601L277 601L208 601L138 601L69 601L0 601Z" fill="#9a2304"></path><path d="M0 479L69 508L138 525L208 504L277 533L346 510L415 523L485 509L554 489L623 499L692 514L762 528L831 476L900 527L900 601L831 601L762 601L692 601L623 601L554 601L485 601L415 601L346 601L277 601L208 601L138 601L69 601L0 601Z" fill="#8f1903"></path><path d="M0 523L69 566L138 575L208 580L277 535L346 529L415 529L485 546L554 583L623 551L692 567L762 563L831 545L900 531L900 601L831 601L762 601L692 601L623 601L554 601L485 601L415 601L346 601L277 601L208 601L138 601L69 601L0 601Z" fill="#850e00"></path></svg>